# xmcd
#
# Track frame offsets:
# 150
# 17297
# 35853
# 47994
# 69265
# 88831
# 103673
# 121278
# 140001
# 156518
# 171406
# 183685
# 203675
# 217353
# 234667
# 250276
# 264950
# 286031
# 306105
# 322933
# 339132
#
# Disc length: 4740 seconds
#
#
# Revision: 1
# Processed by: cddbd v1.5.1PL2 Copyright (c) Steve Scherf et al.
# Submitted via: FreeRIP 2.945 
#
DISCID=38128215
DTITLE=DIVERSOS - BAILÃO GAUCHO
DYEAR=1900
DGENRE=BAILE
TTITLE0=MORENA BRASILEIRA
TTITLE1=NOSSA VANEIRA
TTITLE2=O PAI TA LOUCO
TTITLE3=UM PEDACINHO DO MEU CORAÇÃO
TTITLE4=NA BANHEIRA DAS MENINAS CARINHOSAS
TTITLE5=ENGROSSANDO A VANEIRA
TTITLE6=VANERA DAS MENINAS CARINHOSAS
TTITLE7=CASTELHANA
TTITLE8=REQUEBRA "A MARVADA"
TTITLE9=LA VEM O TCHÊ
TTITLE10=BUM BUM TCHA
TTITLE11=TÔ CAINDO FORA
TTITLE12=A OUTRA
TTITLE13=BARRANCA E FRONTEIRA
TTITLE14=ME CUTUCA
TTITLE15=TÔ NO RODEIO
TTITLE16=BEIJO COM CERVEJA
TTITLE17=DIÁRIO DE VERÃO
TTITLE18=OH! COITADO
TTITLE19=É O PEGADÃO
TTITLE20=VEM CÁ GURIA
EXTD=
EXTT0=QUERO QUERO
EXTT1=OS SERRANOS
EXTT2=CHAMPION
EXTT3=3ª DIMENSÃO
EXTT4=TRADIÇÃO
EXTT5=OS MIRINS
EXTT6=CANDIEIRO
EXTT7=OS NATIVOS
EXTT8=OS MATEADORES
EXTT9=TCHÊ BARBARIDADE
EXTT10=OS MONTANARI
EXTT11=BANDA LEGAL
EXTT12=SAN MARINO
EXTT13=FOGO DE CHÃO
EXTT14=TCHÊ CHALEIRA
EXTT15=OS MONARCAS
EXTT16=MUSICAL JM
EXTT17=BANDA KN
EXTT18=3ª DIMENSÃO
EXTT19=OS GALOPEIROS
EXTT20=TCHÊ CHALEIRA
PLAYORDER=
